# xmcd CD database file
#
# Track frame offsets:
#	150
#	33548
#	87133
#	112780
#	141563
#
# Disc length: 2519 seconds
#
# Revision: 0
# Processed by: cddbd v1.4PL0 Copyright (c) Steve Scherf et al.
# Submitted via: CDex 1.50
#
DISCID=3b09d505
DTITLE=Fania All Stars,  -  Live at Yankee Stadium
DYEAR=1975
DGENRE=Salsa
TTITLE0=Hermandad Fania
TTITLE1=Bemba Clora
TTITLE2=Mi Debilidad
TTITLE3=Echate Pa'lla
TTITLE4=Congo Bongo
EXTD=YEAR: 1975
EXTT0=
EXTT1=
EXTT2=
EXTT3=
EXTT4=
PLAYORDER=
